<svg width="1059" height="266" viewBox="0 0 1059 266" fill="none" xmlns="http://www.w3.org/2000/svg">
<path d="M893.094 56.126H900.382V72.8411L898.742 83.75H902.568C903.662 77.6504 905.362 72.4892 907.67 68.2665C910.099 64.0437 913.258 60.818 917.145 58.5893C921.032 56.2433 925.708 55.0703 931.174 55.0703C937.612 55.0703 943.017 56.3606 947.39 58.9412C951.763 61.5218 954.982 64.9821 957.047 69.3222C959.112 73.5449 960.266 78.3542 960.509 83.75H964.335C964.578 78.4715 965.611 73.7209 967.433 69.4981C969.255 65.158 972.231 61.6977 976.361 59.1171C980.49 56.4193 985.896 55.0703 992.577 55.0703C1003.99 55.0703 1012.25 58.296 1017.36 64.7475C1022.46 71.1989 1025.01 80.055 1025.01 91.3158V144.1H1018.27L1017.72 104.864C1017.6 97.8259 1015.35 91.9609 1010.98 87.2689C1006.61 82.577 1000.17 80.231 991.666 80.231C981.584 80.231 974.296 82.577 969.801 87.2689C965.307 91.8436 963.06 98.647 963.06 107.679V144.1H955.772V107.327C955.772 98.1778 953.707 91.3744 949.577 86.917C945.568 82.4597 939.13 80.231 930.263 80.231C921.032 80.231 913.743 82.577 908.399 87.2689C903.054 91.8436 900.382 98.471 900.382 107.151V144.1H893.094V56.126Z" fill="#32FF8A"/>
<path d="M865.634 56.1197H872.922V144.094H865.634V56.1197ZM860.168 40.4602C862.719 43.0408 865.877 44.3311 869.643 44.3311C873.165 44.3311 876.202 43.0408 878.753 40.4602C881.425 37.7623 882.761 34.7712 882.761 31.4868C882.761 27.9679 881.425 24.9767 878.753 22.5135C876.202 19.9329 873.104 18.6426 869.46 18.6426C865.816 18.6426 862.719 19.9329 860.168 22.5135C857.617 24.9767 856.342 27.9679 856.342 31.4868C856.342 34.7712 857.617 37.7623 860.168 40.4602Z" fill="#32FF8A"/>
<path d="M823.72 111.549C823.72 114.951 824.449 117.355 825.906 118.763C827.486 120.171 829.672 120.874 832.466 120.874C835.017 120.874 837.446 120.464 839.754 119.643C842.183 118.822 844.795 117.473 847.589 115.596V139.525C842.365 143.279 836.535 145.155 830.097 145.155C825.724 145.155 822.445 143.63 820.258 140.581C818.193 137.531 817.161 133.543 817.161 128.616L816.979 20.9355H823.72V111.549Z" fill="#32FF8A"/>
<path d="M800.506 76.0019V90.2537H742.201V76.0019H800.506ZM672.6 82.8639C672.6 70.8994 675.211 60.0492 680.434 50.3134C685.658 40.5775 693.371 32.8944 703.574 27.2641C713.899 21.5164 726.289 18.6426 740.744 18.6426C751.311 18.6426 761.09 19.6983 770.078 21.8097C779.067 23.921 788.542 27.2054 798.502 31.6628V57.1754C786.962 52.3661 776.638 49.0231 767.527 47.1463C758.539 45.1522 748.821 44.1552 738.375 44.1552C726.957 44.1552 716.814 45.856 707.947 49.2577C699.08 52.6593 692.217 57.3513 687.358 63.3336C682.499 69.1985 680.07 75.7086 680.07 82.8639C680.07 90.371 682.439 97.0571 687.176 102.922C691.913 108.67 698.412 113.127 706.672 116.294C714.931 119.461 724.285 121.045 734.731 121.045C743.72 121.045 752.526 119.52 761.15 116.47C769.775 113.42 777.002 109.198 782.833 103.802C788.663 98.406 791.882 92.2478 792.489 85.3272L793.036 79.8728H800.506V142.862H793.036V119.109L796.133 105.737H791.214C789.878 112.306 787.205 118.64 783.197 124.74C779.31 130.839 773.419 136 765.523 140.223C757.628 144.446 747.546 146.557 735.277 146.557C722.645 146.557 711.53 143.742 701.934 138.112C692.46 132.364 685.172 124.681 680.07 115.063C675.09 105.327 672.6 94.5938 672.6 82.8639Z" fill="#32FF8A"/>
<path d="M577.449 56.126H584.737V74.2487L582.369 85.5095H586.559C587.288 80.231 589.11 75.3044 592.025 70.7297C594.941 66.0378 598.767 62.2842 603.504 59.469C608.363 56.5366 614.011 55.0703 620.449 55.0703C628.223 55.0703 635.086 56.5952 641.038 59.645C646.99 62.5775 651.606 66.8589 654.886 72.4892C658.165 78.0023 659.805 84.5124 659.805 92.0195V144.1H652.517V110.142C652.517 103.808 651.059 98.2951 648.144 93.6031C645.229 88.9111 641.22 85.3335 636.119 82.8702C631.138 80.4069 625.551 79.1753 619.356 79.1753C612.797 79.1753 606.845 80.5242 601.5 83.2221C596.277 85.8027 592.147 89.4976 589.11 94.3069C586.195 98.9988 584.737 104.453 584.737 110.67V144.1H577.449V56.126Z" fill="#32FF8A"/>
<path d="M562.827 144.101H555.539V125.803L558.454 112.958H554.628C554.021 118.002 552.32 122.987 549.526 127.914C546.732 132.841 542.724 137.005 537.501 140.406C532.399 143.808 526.265 145.509 519.098 145.509C506.587 145.509 496.991 141.931 490.31 134.776C483.629 127.621 480.289 117.592 480.289 104.689V56.127H487.577V88.6775C487.577 99.1171 490.735 107.035 497.052 112.431C503.368 117.709 511.324 120.348 520.92 120.348C527.237 120.348 533.006 119.117 538.23 116.653C543.453 114.073 547.643 110.436 550.802 105.744C553.96 100.935 555.539 95.2462 555.539 88.6775V56.127H562.827V144.101Z" fill="#32FF8A"/>
<path d="M444.098 123.338C441.79 118.763 439.542 115.361 437.356 113.133C435.17 110.787 432.679 109.262 429.886 108.558C427.092 107.854 423.326 107.502 418.589 107.502H359.737V81.9898H424.784C436.688 81.9898 445.616 80.5235 451.568 77.5911C457.641 74.5413 460.678 69.9666 460.678 63.867C460.678 57.8848 457.763 53.4861 451.932 50.6709C446.102 47.8557 437.295 46.4481 425.513 46.4481H359.555V20.9355H414.398C432.497 20.9355 445.859 24.6891 454.483 32.1963C463.229 39.7034 467.602 50.2603 467.602 63.867C467.602 75.3624 463.958 83.9839 456.67 89.7315C449.381 95.3619 439.057 98.1771 425.695 98.1771V101.872C430.918 101.872 435.534 103.045 439.542 105.391C443.551 107.737 447.013 111.725 449.928 117.355L465.051 144.1H455.759L444.098 123.338ZM365.568 20.9355V144.1H358.098V20.9355H365.568Z" fill="#32FF8A"/>
<rect width="266" height="266" rx="57" fill="#0E1913"/>
<path d="M176.459 68.2992C176.459 77.9331 168.224 85.7429 158.065 85.7429C147.906 85.7429 139.67 77.9331 139.67 68.2992C139.67 58.6653 147.906 50.8555 158.065 50.8555C168.224 50.8555 176.459 58.6653 176.459 68.2992Z" fill="#31EF83"/>
<path d="M139.483 106.675C139.272 107.394 139.061 108.123 138.849 108.863C133.69 125.991 129.54 144.125 115.736 160.263C107.344 170.106 92.968 178.675 77.2062 179.378C61.5435 180.266 47.6523 175.507 35.7187 169.755C33.3651 168.62 31.0071 167.386 28.6176 166.036C36.2535 156.024 43.8941 146.011 51.5299 135.999C53.0238 137.312 54.4611 138.527 55.8668 139.654C70.5807 151.151 84.4617 156.093 99.3137 144.83C110.875 136.094 120.905 121.241 125.463 105.414C125.658 104.734 125.837 104.057 126.001 103.39C126.509 101.325 126.897 99.249 127.147 97.2195C131.928 98.1755 136.709 99.133 141.489 100.089C140.809 102.245 140.136 104.452 139.483 106.675Z" fill="#33FF8A"/>
<path d="M74.159 84.0965C84.6294 76.4673 99.5928 71.3434 116.239 78.1513C129.75 83.6775 138.254 91.5201 144.277 95.9687C150.04 100.225 155.028 102.932 164.747 102.932C173.837 102.932 182.133 98.6155 189.357 92.5303C196.56 86.4627 201.471 79.7143 204.207 76.2289L222.235 88.9595C219.939 91.8842 213.576 100.634 204.284 108.462C195.014 116.271 181.589 124.247 164.747 124.247C148.532 124.247 138.811 118.948 130.468 112.786C122.385 106.817 117.38 101.829 107.34 97.7221C100.435 94.8978 94.0756 96.4625 87.8533 100.996C81.3029 105.769 76.4353 112.928 74.5827 117.448L53.6367 109.731C56.8169 101.97 64.0165 91.487 74.159 84.0965Z" fill="#33FF8A"/>
<path d="M128.383 108.287C130.375 109.196 132.261 110.137 134.173 111.21C148.703 119.19 160.236 132.742 167.298 147.67C177.134 168.02 179.939 190.901 181.485 211.12C181.658 213.01 181.844 214.852 182.113 215.964C168.243 215.945 154.372 215.927 140.502 215.909C140.788 213.215 141.175 211.297 141.545 209.262C145.553 189.939 148.264 172.116 145.282 154.352C143.128 141.5 137.615 129.148 127.527 119.412C126.194 118.123 124.852 116.919 123.372 115.719C125.044 113.242 126.711 110.764 128.383 108.287Z" fill="#33FF8A"/>
<path d="M370.544 191.48H373.456C380.512 198.872 388.632 204.64 397.816 208.896L395.8 212.48C386.504 208 378.608 202.232 372 195.12C365.896 201.896 357.888 207.776 347.976 212.76L346.016 209.232C355.872 204.472 364.048 198.536 370.544 191.48ZM356.376 209.176H387.624V213.04H374.072V222.784H390.256V226.648H374.072V237.008H395.352V240.984H348.704V237.008H369.928V226.648H353.688V222.784H369.928V213.04H356.376V209.176ZM423.688 201H436.4V191.424H440.32V201H449.84C448.048 198.872 445.808 196.688 443.008 194.392L445.36 192.152C448.16 194.336 450.568 196.52 452.472 198.704L450.232 201H453.592V204.92H440.32V210.296C441.16 212.984 442.168 215.56 443.288 218.024C445.864 215.28 448.16 212.2 450.232 208.784L453.256 211.024C450.568 215.168 447.824 218.64 445.08 221.44C447.88 226.592 451.464 231.128 455.832 234.992L453.2 238.128C447.712 232.864 443.4 226.48 440.32 219.032V237.512C440.32 240.592 438.696 242.16 435.56 242.16H429.4L428.616 238.352C430.52 238.52 432.424 238.632 434.216 238.632C435.672 238.632 436.4 237.904 436.4 236.56V222.56C432.704 227.992 428.392 232.528 423.52 236.224L421.448 232.752C427.104 228.944 432.088 223.68 436.4 217.072V204.92H423.688V201ZM426.936 209.344C429.512 212.984 431.472 216.176 432.872 218.864L430.072 220.824C428.504 217.968 426.432 214.776 423.8 211.304L426.936 209.344ZM405.768 211.976H412.096V198.872H405.096V195.12H422.848V198.872H416.24V211.976H421.728V215.784H416.24V227.208C418.536 226.256 420.776 225.248 422.904 224.128V228.048C417.472 230.848 411.592 233.144 405.32 235.048L404.256 231.016C406.944 230.4 409.52 229.672 412.096 228.776V215.784H405.768V211.976ZM465.184 193.608H481.704V209.624C486.296 204.528 489.376 198.312 491.056 191.032L494.92 191.48C494.36 193.776 493.744 195.96 492.96 198.088H511.048C510.88 212.088 510.656 220.32 510.376 222.728C510.04 225.08 509.424 226.704 508.528 227.544C507.632 228.384 505.672 228.832 502.76 228.832H501.024L499.848 224.968C501.192 225.08 502.536 225.136 503.88 225.136C505 225.136 505.784 224.744 506.12 223.96C506.456 223.176 506.624 221.832 506.736 219.928C506.848 217.968 506.904 211.92 507.016 201.784H491.392C489.376 205.816 486.912 209.456 483.888 212.592L481.704 209.736V211.192H476.664V220.264H482.992V223.848H476.664V234.544C478.96 233.816 481.144 233.088 483.272 232.36V236.224C477.784 238.296 471.288 240.2 463.896 241.992L462.832 238.24C463.672 238.016 464.456 237.848 465.24 237.68V217.352H468.768V236.784C470.224 236.392 471.624 236 472.968 235.664V211.192H465.184V193.608ZM477.952 207.608V197.192H468.88V207.608H477.952ZM501.472 208.952V224.576H490.776V234.88C490.776 236.672 491.616 237.624 493.24 237.624H505.672C507.24 237.568 508.36 237.008 509.032 236C509.48 235.16 509.872 233.032 510.208 229.672L513.736 230.792C513.4 234.096 512.952 236.448 512.336 237.904C511.44 240.032 509.536 241.152 506.736 241.208H491.84C488.592 241.208 487.024 239.528 487.024 236.168V208.952H501.472ZM490.776 221.048H497.72V212.536H490.776V221.048ZM526.896 197.136H542.24V191.2H546.384V197.136H559.6V200.888H546.384V207.552H553.44C558.704 203.8 563.352 199.544 567.328 194.84L570.408 197.08C567.104 201 563.576 204.528 559.824 207.552H571.808V211.36H554.728C553.888 211.92 553.048 212.424 552.208 212.984C549.632 214.552 546.664 216.064 543.416 217.576H564.584V242.776H560.552V240.256H536.304V242.776H532.216V222.168C529.192 223.288 526.056 224.352 522.808 225.416L521.128 221.664C530.704 219.424 539.44 215.952 547.392 211.36H521.912V207.552H542.24V200.888H526.896V197.136ZM536.304 230.568V236.672H560.552V230.568H536.304ZM560.552 226.984V221.104H536.304V226.984H560.552ZM582.784 202.68H592.976V191.032H597.064V202.68H612.856V191.256H616.944V202.68H627.192V206.6H616.944V220.096H629.936V224.016H579.984V220.096H592.976V206.6H582.784V202.68ZM597.064 220.096H612.856V206.6H597.064V220.096ZM597.064 225.976L600.088 228.72C595.384 233.984 589.616 238.632 582.784 242.552L579.984 238.968C586.76 235.272 592.472 230.904 597.064 225.976ZM613.304 226.088C619.912 230.512 625.4 234.936 629.88 239.304L626.744 242.496C622.768 238.24 617.336 233.704 610.392 228.888L613.304 226.088ZM659.224 212.872H647.296V236C647.296 237.288 647.968 237.96 649.424 237.96H660.12C662.024 237.96 663.256 237.456 663.704 236.56C664.208 235.496 664.6 233.424 664.824 230.344L668.632 231.576C668.24 236.336 667.512 239.248 666.504 240.368C665.608 241.264 663.816 241.712 661.184 241.712H647.856C644.72 241.712 643.208 240.256 643.208 237.4V209.288H663.144V224.184C663.088 227.208 661.52 228.776 658.44 228.888C656.312 228.888 654.24 228.832 652.28 228.72L651.272 224.912C653.4 225.136 655.304 225.248 656.984 225.248C658.44 225.248 659.224 224.464 659.224 222.952V212.872ZM652.112 191.816H655.08C659.952 196.968 664.656 202.4 669.136 208.112L666.504 210.912C661.688 204.528 657.488 199.432 653.904 195.624C649.76 201.784 645 207.44 639.512 212.592L637.16 209.344C642.648 204.36 647.632 198.536 652.112 191.816ZM672.44 196.24H676.36V231.128H672.44V196.24ZM681.792 242.16H673.112L672.216 238.296C675.072 238.464 677.816 238.576 680.392 238.576C681.792 238.576 682.52 237.736 682.52 236.056V191.48H686.552V237.064C686.552 240.424 684.928 242.16 681.792 242.16ZM730.288 203.744L729.56 206.656C730.96 213.208 732.752 218.864 734.992 223.568C737.176 217.912 738.352 211.304 738.576 203.744H730.288ZM733.144 227.6C730.96 223.288 729.112 218.36 727.6 212.76C726.592 215.336 725.472 217.632 724.296 219.648L721.776 216.568C725.08 210.296 727.32 201.84 728.44 191.2L732.36 191.872C732.024 194.728 731.576 197.416 731.128 199.88H745.912V203.744H742.272C741.992 213.096 740.256 221.104 737.12 227.712C740.032 232.752 743.448 236.616 747.48 239.36L745.296 242.664C741.376 239.864 738.016 236.056 735.216 231.352C732.528 235.832 729.056 239.584 724.856 242.608L722.784 239.248C727.152 236.224 730.568 232.36 733.144 227.6ZM706.6 217.352L710.352 217.8C709.96 218.864 709.568 219.872 709.232 220.88H720.936V224.184C719.704 227.88 717.632 231.072 714.72 233.76C717.408 234.992 719.984 236.224 722.448 237.568L720.264 240.704C717.8 239.248 714.944 237.736 711.64 236.28C707.944 238.856 703.296 240.928 697.696 242.496L695.792 239.136C700.384 237.904 704.36 236.392 707.608 234.544C705.144 233.48 702.568 232.416 699.824 231.408C701.28 228.944 702.568 226.648 703.688 224.408H697.08V220.88H705.256C705.76 219.648 706.208 218.472 706.6 217.352ZM711.024 232.192C713.824 229.952 715.952 227.32 717.296 224.408H707.664C706.768 226.312 705.76 228.104 704.64 229.784C706.88 230.568 709.008 231.352 711.024 232.192ZM701.504 192.376C702.848 194.56 703.968 196.912 704.976 199.376L702.064 200.72C700.888 197.976 699.656 195.568 698.312 193.44L701.504 192.376ZM718.528 192.208L721.44 193.552C720.32 196.016 718.92 198.424 717.128 200.776L714.272 199.32C716.064 196.912 717.52 194.56 718.528 192.208ZM697.192 202.064H708.112V191.368H711.864V202.064H722.056V205.592H711.864V206.208C714.888 207.72 718.024 209.456 721.16 211.36L719.088 214.496C716.288 212.256 713.88 210.464 711.864 209.12V216.4H708.112V205.76C706.264 210.184 702.904 213.992 698.088 217.24L696.128 213.992C700.44 211.472 703.464 208.672 705.144 205.592H697.192V202.064ZM803.424 197.08V209.568H799.392V200.944H759.968V209.568H755.936V197.08H777.944C777.16 195.064 776.32 193.272 775.424 191.648L780.016 190.864C780.8 192.712 781.584 194.784 782.312 197.08H803.424ZM764.56 206.992H794.632V210.744C790.992 213.32 786.904 215.784 782.424 218.248V222H804.488V225.92H782.424V237.792C782.424 240.872 780.8 242.44 777.552 242.44H770.664L769.712 238.744C771.672 238.8 773.8 238.856 776.152 238.856C777.608 238.856 778.336 238.016 778.336 236.392V225.92H754.928V222H778.336V216.512C782.872 214.16 786.288 212.2 788.584 210.744H764.56V206.992ZM823.864 214.832V242.552H819.944V214.832C818.32 219.928 816.248 224.576 813.784 228.72L812.048 224.352C815.688 219.032 818.32 212.984 819.888 206.152H813.112V202.288H819.944V191.312H823.864V202.288H829.576V206.152H823.864V210.296C826.104 213.096 828.344 216.232 830.696 219.704L828.456 223.064C826.72 219.76 825.208 217.016 823.864 214.832ZM830.528 196.24H844.472C844.64 194.504 844.752 192.768 844.864 191.032L848.84 191.592L848.504 196.24H862.448V199.936H848.112C847.888 201.728 847.664 203.408 847.44 205.088H858.752V237.232H863.568V241.04H828.512V237.232H834.168V205.088H843.52C843.744 203.352 843.968 201.616 844.136 199.936H830.528V196.24ZM838.088 237.232H854.832V232.248H838.088V237.232ZM838.088 228.944H854.832V224.352H838.088V228.944ZM838.088 221.104H854.832V216.624H838.088V221.104ZM838.088 213.32H854.832V208.672H838.088V213.32ZM896.272 191.256L900.08 192.264C899.464 195.176 898.792 197.864 898.008 200.328H919.736C919.736 219.032 919.456 230.568 918.896 234.936C918.28 239.864 915.256 242.328 909.824 242.328C909.04 242.328 907.64 242.272 905.624 242.16L904.672 238.52C906.464 238.632 907.976 238.744 909.264 238.744C912.68 238.744 914.64 236.952 915.144 233.368C915.536 230.232 915.76 220.488 915.872 204.248H912.064C910.832 213.6 909.152 220.992 906.968 226.424C904.392 232.248 900.584 237.512 895.488 242.16L893.024 238.968C897.728 234.712 901.2 230.008 903.552 224.856C905.736 219.648 907.36 212.76 908.424 204.248H904.056C901.816 216.456 897.56 225.304 891.288 230.848L888.656 227.824C894.424 222.896 898.344 215 900.472 204.248H896.608C895.096 207.832 893.416 210.744 891.512 213.096L888.544 210.576C892.128 206.096 894.704 199.656 896.272 191.256ZM876 206.936C875.384 209.736 874.656 212.48 873.76 215.112L870.232 214.104C872.36 208.168 873.536 201.952 873.816 195.4L877.344 195.68C877.232 198.144 877.008 200.608 876.672 203.016H880.592V191.368H884.512V203.016H889.216V206.936H884.512V220.376C886.08 219.648 887.536 218.92 888.992 218.136V221.944C887.536 222.728 886.024 223.456 884.512 224.184V242.664H880.592V225.864C877.736 226.984 874.824 228.048 871.8 229L870.848 225.08C874.208 224.296 877.456 223.288 880.592 222.056V206.936H876ZM971.592 241.824H961.456C957.928 241.824 956.192 239.92 956.192 236.224V227.432C953.728 228.608 951.264 229.728 948.744 230.736L946.504 227.376C949.976 225.976 953.168 224.52 956.192 223.008V206.656H960.28V220.768C966.384 217.184 971.368 213.264 975.288 209.008L978.088 211.864C973.048 217.016 967.112 221.44 960.28 225.248V235.384C960.28 237.232 961.008 238.184 962.576 238.184H970.864C972.32 238.184 973.384 237.736 974.056 236.952C974.84 236 975.344 233.2 975.624 228.608L979.488 229.784C979.04 235.496 978.144 239.024 976.912 240.256C975.792 241.264 974 241.824 971.592 241.824ZM938.44 221.216C935.976 223.904 933.288 226.48 930.32 228.888L929.144 224.856C935.64 219.368 940.344 213.152 943.312 206.152L946.952 207.832C945.72 210.632 944.264 213.32 942.584 215.896V242.832H938.44V221.216ZM930.264 196.408H942.36V191.2H946.336V196.408H962.52V191.2H966.496V196.408H978.592V200.216H966.496V205.144H962.52V200.216H946.336V205.144H942.36V200.216H930.264V196.408ZM1035.54 193.832V242.664H1031.51V240.424H993.768V242.664H989.736V193.832H1035.54ZM993.768 236.84H1031.51V197.528H993.768V236.84ZM1000.88 202.68H1024.46V206.264H1000.88V202.68ZM997.688 212.256H1027.59V215.84H1018.63V227.32C1018.63 228.664 1019.19 229.336 1020.42 229.336H1022.55C1023.34 229.336 1023.9 229.168 1024.34 228.832C1025.02 228.44 1025.41 226.48 1025.63 223.008L1028.99 224.128C1028.54 228.272 1027.98 230.792 1027.2 231.576C1026.47 232.248 1025.18 232.584 1023.34 232.64H1019.25C1017.85 232.64 1016.78 232.192 1016.06 231.408C1015.27 230.512 1014.94 229.448 1014.94 228.16V215.84H1009.62C1009.11 220.432 1008.05 223.96 1006.37 226.536C1004.46 229.448 1001.5 231.688 997.576 233.368L995.672 230.12C999.144 228.776 1001.66 226.872 1003.29 224.408C1004.63 222.28 1005.53 219.424 1005.98 215.84H997.688V212.256Z" fill="#35FA87" fill-opacity="0.6"/>
</svg>
